<svg xmlns="http://www.w3.org/2000/svg" xmlns:xlink="http://www.w3.org/1999/xlink" width="500" zoomAndPan="magnify" viewBox="0 0 375 374.999991" height="500" preserveAspectRatio="xMidYMid meet" version="1.0"><defs><g/></defs><rect x="-37.5" width="450" fill="#ffffff" y="-37.499999" height="449.999989" fill-opacity="1"/><rect x="-37.5" width="450" fill="#ffffff" y="-37.499999" height="449.999989" fill-opacity="1"/><g fill="#0e8df1" fill-opacity="1"><g transform="translate(44.490763, 270.070126)"><g><path d="M 87.8125 0 L 68.015625 0 L 68.015625 -126.515625 C 68.015625 -131.316406 68.035156 -135.445312 68.078125 -138.90625 C 68.117188 -142.375 68.203125 -145.550781 68.328125 -148.4375 C 68.453125 -151.332031 68.632812 -154.285156 68.875 -157.296875 C 66.351562 -154.691406 63.992188 -152.472656 61.796875 -150.640625 C 59.597656 -148.804688 56.867188 -146.546875 53.609375 -143.859375 L 33.21875 -127.5 L 22.59375 -141.296875 L 70.953125 -178.546875 L 87.8125 -178.546875 Z M 87.8125 0 "/></g></g><g transform="translate(187.493696, 270.070126)"><g><path d="M 87.8125 0 L 68.015625 0 L 68.015625 -126.515625 C 68.015625 -131.316406 68.035156 -135.445312 68.078125 -138.90625 C 68.117188 -142.375 68.203125 -145.550781 68.328125 -148.4375 C 68.453125 -151.332031 68.632812 -154.285156 68.875 -157.296875 C 66.351562 -154.691406 63.992188 -152.472656 61.796875 -150.640625 C 59.597656 -148.804688 56.867188 -146.546875 53.609375 -143.859375 L 33.21875 -127.5 L 22.59375 -141.296875 L 70.953125 -178.546875 L 87.8125 -178.546875 Z M 87.8125 0 "/></g></g></g></svg>